<?xml version="1.0" encoding="UTF-8"?>

<!DOCTYPE svg PUBLIC '-//W3C//DTD SVG 20001102//EN' 'http://www.w3.org/TR/2000/CR-SVG-20001102/DTD/svg-20001102.dtd'>
<svg style="fill-opacity:1; color-rendering:auto; color-interpolation:sRGB; text-rendering:auto; stroke:black; stroke-linecap:square; stroke-miterlimit:10; shape-rendering:auto; stroke-opacity:1; fill:black; stroke-dasharray:none; font-weight:normal; stroke-width:1; font-family:&apos;sansserif&apos;; font-style:normal; stroke-linejoin:miter; font-size:12; stroke-dashoffset:0; image-rendering:auto;" width="928" height="791">
  <!--Generated by the Batik Graphics2D SVG Generator-->
  <defs id="genericDefs" />
  <g>
    <defs id="defs1">
      <clipPath clipPathUnits="userSpaceOnUse" id="clipPath1">
        <path d="M0 0 L928 0 L928 791 L0 791 L0 0 Z" />
      </clipPath>
      <clipPath clipPathUnits="userSpaceOnUse" id="clipPath2">
        <path d="M153 80 L153 781 L344 781 L344 80 Z" />
      </clipPath>
      <clipPath clipPathUnits="userSpaceOnUse" id="clipPath3">
        <path d="M153 80 L153 97 L344 97 L344 80 Z" />
      </clipPath>
      <clipPath clipPathUnits="userSpaceOnUse" id="clipPath4">
        <path d="M427 83 L427 464 L618 464 L618 83 Z" />
      </clipPath>
      <clipPath clipPathUnits="userSpaceOnUse" id="clipPath5">
        <path d="M427 83 L427 100 L618 100 L618 83 Z" />
      </clipPath>
      <clipPath clipPathUnits="userSpaceOnUse" id="clipPath6">
        <path d="M680 83 L680 464 L918 464 L918 83 Z" />
      </clipPath>
      <clipPath clipPathUnits="userSpaceOnUse" id="clipPath7">
        <path d="M680 83 L680 100 L918 100 L918 83 Z" />
      </clipPath>
      <clipPath clipPathUnits="userSpaceOnUse" id="clipPath8">
        <path d="M239 122 L239 135 L252 135 L252 122 Z" />
      </clipPath>
      <clipPath clipPathUnits="userSpaceOnUse" id="clipPath9">
        <path d="M182 170 L182 191 L325 191 L325 170 Z" />
      </clipPath>
      <clipPath clipPathUnits="userSpaceOnUse" id="clipPath10">
        <path d="M222 230 L222 251 L282 251 L282 230 Z" />
      </clipPath>
      <clipPath clipPathUnits="userSpaceOnUse" id="clipPath11">
        <path d="M212 290 L212 311 L289 311 L289 290 Z" />
      </clipPath>
      <clipPath clipPathUnits="userSpaceOnUse" id="clipPath12">
        <path d="M240 615 L240 628 L253 628 L253 615 Z" />
      </clipPath>
      <clipPath clipPathUnits="userSpaceOnUse" id="clipPath13">
        <path d="M182 560 L182 581 L317 581 L317 560 Z" />
      </clipPath>
      <clipPath clipPathUnits="userSpaceOnUse" id="clipPath14">
        <path d="M212 510 L212 531 L272 531 L272 510 Z" />
      </clipPath>
      <clipPath clipPathUnits="userSpaceOnUse" id="clipPath15">
        <path d="M212 440 L212 461 L275 461 L275 440 Z" />
      </clipPath>
      <clipPath clipPathUnits="userSpaceOnUse" id="clipPath16">
        <path d="M240 740 L240 753 L253 753 L253 740 Z" />
      </clipPath>
      <clipPath clipPathUnits="userSpaceOnUse" id="clipPath17">
        <path d="M452 290 L452 311 L575 311 L575 290 Z" />
      </clipPath>
      <clipPath clipPathUnits="userSpaceOnUse" id="clipPath18">
        <path d="M499 414 L499 435 L579 435 L579 414 Z" />
      </clipPath>
      <clipPath clipPathUnits="userSpaceOnUse" id="clipPath19">
        <path d="M452 120 L452 141 L586 141 L586 120 Z" />
      </clipPath>
      <clipPath clipPathUnits="userSpaceOnUse" id="clipPath20">
        <path d="M712 140 L712 161 L836 161 L836 140 Z" />
      </clipPath>
      <clipPath clipPathUnits="userSpaceOnUse" id="clipPath21">
        <path d="M722 230 L722 251 L841 251 L841 230 Z" />
      </clipPath>
      <clipPath clipPathUnits="userSpaceOnUse" id="clipPath22">
        <path d="M702 360 L702 381 L900 381 L900 360 Z" />
      </clipPath>
      <clipPath clipPathUnits="userSpaceOnUse" id="clipPath23">
        <path d="M780 430 L780 446 L796 446 L796 430 Z" />
      </clipPath>
    </defs>
    <g style="fill:rgb(200,200,200); stroke:rgb(200,200,200);">
      <rect x="153" y="80" width="190" style="clip-path:url(#clipPath1); stroke:none;" height="700" />
      <rect x="153" y="80" width="190" style="clip-path:url(#clipPath1); fill:none; stroke:black;" height="700" />
    </g>
    <g style="font-family:sans-serif;">
      <text x="216" y="93" style="clip-path:url(#clipPath3); stroke:none;">Requesting
      </text>
    </g>
    <g style="fill:rgb(200,200,200); stroke:rgb(200,200,200);">
      <rect x="427" y="83" width="190" style="clip-path:url(#clipPath1); stroke:none;" height="380" />
      <rect x="427" y="83" width="190" style="clip-path:url(#clipPath1); fill:none; stroke:black;" height="380" />
    </g>
    <g style="font-family:sans-serif;">
      <text x="490" y="96" style="clip-path:url(#clipPath5); stroke:none;">Processing
      </text>
    </g>
    <g style="fill:rgb(200,200,200); stroke:rgb(200,200,200);">
      <rect x="680" y="83" width="237" style="clip-path:url(#clipPath1); stroke:none;" height="380" />
      <rect x="680" y="83" width="237" style="clip-path:url(#clipPath1); fill:none; stroke:black;" height="380" />
    </g>
    <g style="font-family:sans-serif;">
      <text x="772" y="96" style="clip-path:url(#clipPath7); stroke:none;">Finalizing
      </text>
    </g>
    <g>
      <circle style="clip-path:url(#clipPath8); stroke:none;" r="6" cx="245" cy="128" />
    </g>
    <g style="fill:navy; stroke:navy;">
      <rect x="185" y="173" width="143" style="clip-path:url(#clipPath1); stroke:none;" height="20" />
      <path d="M185.5 173 C178.596435546875 173 173 177.47715759277344 173 183 C173 188.52284240722656 178.596435546875 193 185.5 193 L185.5 183 Z" style="clip-path:url(#clipPath1); stroke:none;" />
      <path d="M327.5 193 C334.403564453125 193 340 188.52284240722656 340 183 C340 177.47715759277344 334.403564453125 173 327.5 173 L327.5 183 Z" style="clip-path:url(#clipPath1); stroke:none;" />
      <rect x="182" y="170" width="143" style="clip-path:url(#clipPath1); fill:white; stroke:none;" height="20" />
      <path d="M182.5 170 C175.596435546875 170 170 174.47715759277344 170 180 C170 185.52284240722656 175.596435546875 190 182.5 190 L182.5 180 Z" style="fill:white; clip-path:url(#clipPath1); stroke:none;" />
      <path d="M324.5 190 C331.403564453125 190 337 185.52284240722656 337 180 C337 174.47715759277344 331.403564453125 170 324.5 170 L324.5 180 Z" style="fill:white; clip-path:url(#clipPath1); stroke:none;" />
      <line x1="182" x2="325" y1="170" style="clip-path:url(#clipPath1); fill:none; stroke:black;" y2="170" />
      <line x1="182" x2="325" y1="190" style="clip-path:url(#clipPath1); fill:none; stroke:black;" y2="190" />
      <path d="M182.5 170 C175.596435546875 170 170 174.47715759277344 170 180 C170 185.52284240722656 175.596435546875 190 182.5 190" style="fill:none; clip-path:url(#clipPath1); stroke:black;" />
      <path d="M324.5 190 C331.403564453125 190 337 185.52284240722656 337 180 C337 174.47715759277344 331.403564453125 170 324.5 170" style="fill:none; clip-path:url(#clipPath1); stroke:black;" />
    </g>
    <g style="font-family:sans-serif;">
      <text x="186" y="183" style="clip-path:url(#clipPath9); stroke:none;">Chooses shift to remove
      </text>
    </g>
    <g style="fill:navy; stroke:navy;">
      <rect x="225" y="233" width="60" style="clip-path:url(#clipPath1); stroke:none;" height="20" />
      <path d="M225.5 233 C218.596435546875 233 213 237.47715759277344 213 243 C213 248.52284240722656 218.596435546875 253 225.5 253 L225.5 243 Z" style="clip-path:url(#clipPath1); stroke:none;" />
      <path d="M284.5 253 C291.403564453125 253 297 248.52284240722656 297 243 C297 237.47715759277344 291.403564453125 233 284.5 233 L284.5 243 Z" style="clip-path:url(#clipPath1); stroke:none;" />
      <rect x="222" y="230" width="60" style="clip-path:url(#clipPath1); fill:white; stroke:none;" height="20" />
      <path d="M222.5 230 C215.596435546875 230 210 234.47715759277344 210 240 C210 245.52284240722656 215.596435546875 250 222.5 250 L222.5 240 Z" style="fill:white; clip-path:url(#clipPath1); stroke:none;" />
      <path d="M281.5 250 C288.403564453125 250 294 245.52284240722656 294 240 C294 234.47715759277344 288.403564453125 230 281.5 230 L281.5 240 Z" style="fill:white; clip-path:url(#clipPath1); stroke:none;" />
      <line x1="222" x2="282" y1="230" style="clip-path:url(#clipPath1); fill:none; stroke:black;" y2="230" />
      <line x1="222" x2="282" y1="250" style="clip-path:url(#clipPath1); fill:none; stroke:black;" y2="250" />
      <path d="M222.5 230 C215.596435546875 230 210 234.47715759277344 210 240 C210 245.52284240722656 215.596435546875 250 222.5 250" style="fill:none; clip-path:url(#clipPath1); stroke:black;" />
      <path d="M281.5 250 C288.403564453125 250 294 245.52284240722656 294 240 C294 234.47715759277344 288.403564453125 230 281.5 230" style="fill:none; clip-path:url(#clipPath1); stroke:black;" />
    </g>
    <g style="font-family:sans-serif;">
      <text x="226" y="243" style="clip-path:url(#clipPath10); stroke:none;">Confirms
      </text>
    </g>
    <g style="fill:navy; stroke:navy;">
      <rect x="215" y="293" width="77" style="clip-path:url(#clipPath1); stroke:none;" height="20" />
      <path d="M215.5 293 C208.596435546875 293 203 297.4771423339844 203 303 C203 308.5228576660156 208.596435546875 313 215.5 313 L215.5 303 Z" style="clip-path:url(#clipPath1); stroke:none;" />
      <path d="M291.5 313 C298.403564453125 313 304 308.5228576660156 304 303 C304 297.4771423339844 298.403564453125 293 291.5 293 L291.5 303 Z" style="clip-path:url(#clipPath1); stroke:none;" />
      <rect x="212" y="290" width="77" style="clip-path:url(#clipPath1); fill:white; stroke:none;" height="20" />
      <path d="M212.5 290 C205.596435546875 290 200 294.4771423339844 200 300 C200 305.5228576660156 205.596435546875 310 212.5 310 L212.5 300 Z" style="fill:white; clip-path:url(#clipPath1); stroke:none;" />
      <path d="M288.5 310 C295.403564453125 310 301 305.5228576660156 301 300 C301 294.4771423339844 295.403564453125 290 288.5 290 L288.5 300 Z" style="fill:white; clip-path:url(#clipPath1); stroke:none;" />
      <line x1="212" x2="289" y1="290" style="clip-path:url(#clipPath1); fill:none; stroke:black;" y2="290" />
      <line x1="212" x2="289" y1="310" style="clip-path:url(#clipPath1); fill:none; stroke:black;" y2="310" />
      <path d="M212.5 290 C205.596435546875 290 200 294.4771423339844 200 300 C200 305.5228576660156 205.596435546875 310 212.5 310" style="fill:none; clip-path:url(#clipPath1); stroke:black;" />
      <path d="M288.5 310 C295.403564453125 310 301 305.5228576660156 301 300 C301 294.4771423339844 295.403564453125 290 288.5 290" style="fill:none; clip-path:url(#clipPath1); stroke:black;" />
    </g>
    <g style="font-family:sans-serif;">
      <text x="216" y="303" style="clip-path:url(#clipPath11); stroke:none;">SendToPool
      </text>
    </g>
    <g>
      <circle style="clip-path:url(#clipPath12); stroke:none;" r="6" cx="246" cy="621" />
    </g>
    <g style="fill:navy; stroke:navy;">
      <rect x="185" y="563" width="135" style="clip-path:url(#clipPath1); stroke:none;" height="20" />
      <path d="M185.5 563 C178.596435546875 563 173 567.4771728515625 173 573 C173 578.5228271484375 178.596435546875 583 185.5 583 L185.5 573 Z" style="clip-path:url(#clipPath1); stroke:none;" />
      <path d="M319.5 583 C326.403564453125 583 332 578.5228271484375 332 573 C332 567.4771728515625 326.403564453125 563 319.5 563 L319.5 573 Z" style="clip-path:url(#clipPath1); stroke:none;" />
      <rect x="182" y="560" width="135" style="clip-path:url(#clipPath1); fill:white; stroke:none;" height="20" />
      <path d="M182.5 560 C175.596435546875 560 170 564.4771728515625 170 570 C170 575.5228271484375 175.596435546875 580 182.5 580 L182.5 570 Z" style="fill:white; clip-path:url(#clipPath1); stroke:none;" />
      <path d="M316.5 580 C323.403564453125 580 329 575.5228271484375 329 570 C329 564.4771728515625 323.403564453125 560 316.5 560 L316.5 570 Z" style="fill:white; clip-path:url(#clipPath1); stroke:none;" />
      <line x1="182" x2="317" y1="560" style="clip-path:url(#clipPath1); fill:none; stroke:black;" y2="560" />
      <line x1="182" x2="317" y1="580" style="clip-path:url(#clipPath1); fill:none; stroke:black;" y2="580" />
      <path d="M182.5 560 C175.596435546875 560 170 564.4771728515625 170 570 C170 575.5228271484375 175.596435546875 580 182.5 580" style="fill:none; clip-path:url(#clipPath1); stroke:black;" />
      <path d="M316.5 580 C323.403564453125 580 329 575.5228271484375 329 570 C329 564.4771728515625 323.403564453125 560 316.5 560" style="fill:none; clip-path:url(#clipPath1); stroke:black;" />
    </g>
    <g style="font-family:sans-serif;">
      <text x="186" y="573" style="clip-path:url(#clipPath13); stroke:none;">Chooses to take a shift
      </text>
    </g>
    <g style="fill:navy; stroke:navy;">
      <rect x="215" y="513" width="60" style="clip-path:url(#clipPath1); stroke:none;" height="20" />
      <path d="M215.5 513 C208.596435546875 513 203 517.4771728515625 203 523 C203 528.5228271484375 208.596435546875 533 215.5 533 L215.5 523 Z" style="clip-path:url(#clipPath1); stroke:none;" />
      <path d="M274.5 533 C281.403564453125 533 287 528.5228271484375 287 523 C287 517.4771728515625 281.403564453125 513 274.5 513 L274.5 523 Z" style="clip-path:url(#clipPath1); stroke:none;" />
      <rect x="212" y="510" width="60" style="clip-path:url(#clipPath1); fill:white; stroke:none;" height="20" />
      <path d="M212.5 510 C205.596435546875 510 200 514.4771728515625 200 520 C200 525.5228271484375 205.596435546875 530 212.5 530 L212.5 520 Z" style="fill:white; clip-path:url(#clipPath1); stroke:none;" />
      <path d="M271.5 530 C278.403564453125 530 284 525.5228271484375 284 520 C284 514.4771728515625 278.403564453125 510 271.5 510 L271.5 520 Z" style="fill:white; clip-path:url(#clipPath1); stroke:none;" />
      <line x1="212" x2="272" y1="510" style="clip-path:url(#clipPath1); fill:none; stroke:black;" y2="510" />
      <line x1="212" x2="272" y1="530" style="clip-path:url(#clipPath1); fill:none; stroke:black;" y2="530" />
      <path d="M212.5 510 C205.596435546875 510 200 514.4771728515625 200 520 C200 525.5228271484375 205.596435546875 530 212.5 530" style="fill:none; clip-path:url(#clipPath1); stroke:black;" />
      <path d="M271.5 530 C278.403564453125 530 284 525.5228271484375 284 520 C284 514.4771728515625 278.403564453125 510 271.5 510" style="fill:none; clip-path:url(#clipPath1); stroke:black;" />
    </g>
    <g style="font-family:sans-serif;">
      <text x="216" y="523" style="clip-path:url(#clipPath14); stroke:none;">Confirms
      </text>
    </g>
    <g style="fill:navy; stroke:navy;">
      <rect x="215" y="443" width="63" style="clip-path:url(#clipPath1); stroke:none;" height="20" />
      <path d="M215.5 443 C208.596435546875 443 203 447.4771423339844 203 453 C203 458.5228576660156 208.596435546875 463 215.5 463 L215.5 453 Z" style="clip-path:url(#clipPath1); stroke:none;" />
      <path d="M277.5 463 C284.403564453125 463 290 458.5228576660156 290 453 C290 447.4771423339844 284.403564453125 443 277.5 443 L277.5 453 Z" style="clip-path:url(#clipPath1); stroke:none;" />
      <rect x="212" y="440" width="63" style="clip-path:url(#clipPath1); fill:white; stroke:none;" height="20" />
      <path d="M212.5 440 C205.596435546875 440 200 444.4771423339844 200 450 C200 455.5228576660156 205.596435546875 460 212.5 460 L212.5 450 Z" style="fill:white; clip-path:url(#clipPath1); stroke:none;" />
      <path d="M274.5 460 C281.403564453125 460 287 455.5228576660156 287 450 C287 444.4771423339844 281.403564453125 440 274.5 440 L274.5 450 Z" style="fill:white; clip-path:url(#clipPath1); stroke:none;" />
      <line x1="212" x2="275" y1="440" style="clip-path:url(#clipPath1); fill:none; stroke:black;" y2="440" />
      <line x1="212" x2="275" y1="460" style="clip-path:url(#clipPath1); fill:none; stroke:black;" y2="460" />
      <path d="M212.5 440 C205.596435546875 440 200 444.4771423339844 200 450 C200 455.5228576660156 205.596435546875 460 212.5 460" style="fill:none; clip-path:url(#clipPath1); stroke:black;" />
      <path d="M274.5 460 C281.403564453125 460 287 455.5228576660156 287 450 C287 444.4771423339844 281.403564453125 440 274.5 440" style="fill:none; clip-path:url(#clipPath1); stroke:black;" />
    </g>
    <g style="font-family:sans-serif;">
      <text x="216" y="453" style="clip-path:url(#clipPath15); stroke:none;">View Pool
      </text>
    </g>
    <g>
      <circle style="clip-path:url(#clipPath16); stroke:none;" r="6" cx="246" cy="746" />
    </g>
    <g style="fill:navy; stroke:navy;">
      <rect x="455" y="293" width="123" style="clip-path:url(#clipPath1); stroke:none;" height="20" />
      <path d="M455.5 293 C448.596435546875 293 443 297.4771423339844 443 303 C443 308.5228576660156 448.596435546875 313 455.5 313 L455.5 303 Z" style="clip-path:url(#clipPath1); stroke:none;" />
      <path d="M577.5 313 C584.403564453125 313 590 308.5228576660156 590 303 C590 297.4771423339844 584.403564453125 293 577.5 293 L577.5 303 Z" style="clip-path:url(#clipPath1); stroke:none;" />
      <rect x="452" y="290" width="123" style="clip-path:url(#clipPath1); fill:white; stroke:none;" height="20" />
      <path d="M452.5 290 C445.596435546875 290 440 294.4771423339844 440 300 C440 305.5228576660156 445.596435546875 310 452.5 310 L452.5 300 Z" style="fill:white; clip-path:url(#clipPath1); stroke:none;" />
      <path d="M574.5 310 C581.403564453125 310 587 305.5228576660156 587 300 C587 294.4771423339844 581.403564453125 290 574.5 290 L574.5 300 Z" style="fill:white; clip-path:url(#clipPath1); stroke:none;" />
      <line x1="452" x2="575" y1="290" style="clip-path:url(#clipPath1); fill:none; stroke:black;" y2="290" />
      <line x1="452" x2="575" y1="310" style="clip-path:url(#clipPath1); fill:none; stroke:black;" y2="310" />
      <path d="M452.5 290 C445.596435546875 290 440 294.4771423339844 440 300 C440 305.5228576660156 445.596435546875 310 452.5 310" style="fill:none; clip-path:url(#clipPath1); stroke:black;" />
      <path d="M574.5 310 C581.403564453125 310 587 305.5228576660156 587 300 C587 294.4771423339844 581.403564453125 290 574.5 290" style="fill:none; clip-path:url(#clipPath1); stroke:black;" />
    </g>
    <g style="font-family:sans-serif;">
      <text x="456" y="303" style="clip-path:url(#clipPath17); stroke:none;">Waits for acceptance
      </text>
    </g>
    <g style="fill:navy; stroke:navy;">
      <rect x="502" y="417" width="80" style="clip-path:url(#clipPath1); stroke:none;" height="20" />
      <path d="M502.5 417 C495.596435546875 417 490 421.4771423339844 490 427 C490 432.5228576660156 495.596435546875 437 502.5 437 L502.5 427 Z" style="clip-path:url(#clipPath1); stroke:none;" />
      <path d="M581.5 437 C588.403564453125 437 594 432.5228576660156 594 427 C594 421.4771423339844 588.403564453125 417 581.5 417 L581.5 427 Z" style="clip-path:url(#clipPath1); stroke:none;" />
      <rect x="499" y="414" width="80" style="clip-path:url(#clipPath1); fill:white; stroke:none;" height="20" />
      <path d="M499.5 414 C492.596435546875 414 487 418.4771423339844 487 424 C487 429.5228576660156 492.596435546875 434 499.5 434 L499.5 424 Z" style="fill:white; clip-path:url(#clipPath1); stroke:none;" />
      <path d="M578.5 434 C585.403564453125 434 591 429.5228576660156 591 424 C591 418.4771423339844 585.403564453125 414 578.5 414 L578.5 424 Z" style="fill:white; clip-path:url(#clipPath1); stroke:none;" />
      <line x1="499" x2="579" y1="414" style="clip-path:url(#clipPath1); fill:none; stroke:black;" y2="414" />
      <line x1="499" x2="579" y1="434" style="clip-path:url(#clipPath1); fill:none; stroke:black;" y2="434" />
      <path d="M499.5 414 C492.596435546875 414 487 418.4771423339844 487 424 C487 429.5228576660156 492.596435546875 434 499.5 434" style="fill:none; clip-path:url(#clipPath1); stroke:black;" />
      <path d="M578.5 434 C585.403564453125 434 591 429.5228576660156 591 424 C591 418.4771423339844 585.403564453125 414 578.5 414" style="fill:none; clip-path:url(#clipPath1); stroke:black;" />
    </g>
    <g style="font-family:sans-serif;">
      <text x="503" y="427" style="clip-path:url(#clipPath18); stroke:none;">Choose Shift
      </text>
    </g>
    <g style="fill:navy; stroke:navy;">
      <rect x="455" y="123" width="134" style="clip-path:url(#clipPath1); stroke:none;" height="20" />
      <path d="M455.5 123 C448.596435546875 123 443 127.4771499633789 443 133 C443 138.52284240722656 448.596435546875 143 455.5 143 L455.5 133 Z" style="clip-path:url(#clipPath1); stroke:none;" />
      <path d="M588.5 143 C595.403564453125 143 601 138.52284240722656 601 133 C601 127.4771499633789 595.403564453125 123 588.5 123 L588.5 133 Z" style="clip-path:url(#clipPath1); stroke:none;" />
      <rect x="452" y="120" width="134" style="clip-path:url(#clipPath1); fill:white; stroke:none;" height="20" />
      <path d="M452.5 120 C445.596435546875 120 440 124.4771499633789 440 130 C440 135.52284240722656 445.596435546875 140 452.5 140 L452.5 130 Z" style="fill:white; clip-path:url(#clipPath1); stroke:none;" />
      <path d="M585.5 140 C592.403564453125 140 598 135.52284240722656 598 130 C598 124.4771499633789 592.403564453125 120 585.5 120 L585.5 130 Z" style="fill:white; clip-path:url(#clipPath1); stroke:none;" />
      <line x1="452" x2="586" y1="120" style="clip-path:url(#clipPath1); fill:none; stroke:black;" y2="120" />
      <line x1="452" x2="586" y1="140" style="clip-path:url(#clipPath1); fill:none; stroke:black;" y2="140" />
      <path d="M452.5 120 C445.596435546875 120 440 124.4771499633789 440 130 C440 135.52284240722656 445.596435546875 140 452.5 140" style="fill:none; clip-path:url(#clipPath1); stroke:black;" />
      <path d="M585.5 140 C592.403564453125 140 598 135.52284240722656 598 130 C598 124.4771499633789 592.403564453125 120 585.5 120" style="fill:none; clip-path:url(#clipPath1); stroke:black;" />
    </g>
    <g style="font-family:sans-serif;">
      <text x="456" y="133" style="clip-path:url(#clipPath19); stroke:none;">Exchange is confirmed
      </text>
    </g>
    <g style="fill:navy; stroke:navy;">
      <polygon style="clip-path:url(#clipPath1); stroke:none;" points=" 491 193 530 228 491 263 453 228 491 193" />
      <polygon style="fill:white; clip-path:url(#clipPath1); stroke:none;" points=" 488 190 527 225 488 260 450 225 488 190" />
      <polygon style="fill:none; clip-path:url(#clipPath1); stroke:black;" points=" 488 190 527 225 488 260 450 225 488 190" />
      <rect x="715" y="143" width="124" style="clip-path:url(#clipPath1); stroke:none;" height="20" />
      <path d="M715.5 143 C708.596435546875 143 703 147.47715759277344 703 153 C703 158.52284240722656 708.596435546875 163 715.5 163 L715.5 153 Z" style="clip-path:url(#clipPath1); stroke:none;" />
      <path d="M838.5 163 C845.403564453125 163 851 158.52284240722656 851 153 C851 147.47715759277344 845.403564453125 143 838.5 143 L838.5 153 Z" style="clip-path:url(#clipPath1); stroke:none;" />
      <rect x="712" y="140" width="124" style="clip-path:url(#clipPath1); fill:white; stroke:none;" height="20" />
      <path d="M712.5 140 C705.596435546875 140 700 144.47715759277344 700 150 C700 155.52284240722656 705.596435546875 160 712.5 160 L712.5 150 Z" style="fill:white; clip-path:url(#clipPath1); stroke:none;" />
      <path d="M835.5 160 C842.403564453125 160 848 155.52284240722656 848 150 C848 144.47715759277344 842.403564453125 140 835.5 140 L835.5 150 Z" style="fill:white; clip-path:url(#clipPath1); stroke:none;" />
      <line x1="712" x2="836" y1="140" style="clip-path:url(#clipPath1); fill:none; stroke:black;" y2="140" />
      <line x1="712" x2="836" y1="160" style="clip-path:url(#clipPath1); fill:none; stroke:black;" y2="160" />
      <path d="M712.5 140 C705.596435546875 140 700 144.47715759277344 700 150 C700 155.52284240722656 705.596435546875 160 712.5 160" style="fill:none; clip-path:url(#clipPath1); stroke:black;" />
      <path d="M835.5 160 C842.403564453125 160 848 155.52284240722656 848 150 C848 144.47715759277344 842.403564453125 140 835.5 140" style="fill:none; clip-path:url(#clipPath1); stroke:black;" />
    </g>
    <g style="font-family:sans-serif;">
      <text x="716" y="153" style="clip-path:url(#clipPath20); stroke:none;">Supervisor is notified
      </text>
    </g>
    <g style="fill:navy; stroke:navy;">
      <rect x="725" y="233" width="119" style="clip-path:url(#clipPath1); stroke:none;" height="20" />
      <path d="M725.5 233 C718.596435546875 233 713 237.47715759277344 713 243 C713 248.52284240722656 718.596435546875 253 725.5 253 L725.5 243 Z" style="clip-path:url(#clipPath1); stroke:none;" />
      <path d="M843.5 253 C850.403564453125 253 856 248.52284240722656 856 243 C856 237.47715759277344 850.403564453125 233 843.5 233 L843.5 243 Z" style="clip-path:url(#clipPath1); stroke:none;" />
      <rect x="722" y="230" width="119" style="clip-path:url(#clipPath1); fill:white; stroke:none;" height="20" />
      <path d="M722.5 230 C715.596435546875 230 710 234.47715759277344 710 240 C710 245.52284240722656 715.596435546875 250 722.5 250 L722.5 240 Z" style="fill:white; clip-path:url(#clipPath1); stroke:none;" />
      <path d="M840.5 250 C847.403564453125 250 853 245.52284240722656 853 240 C853 234.47715759277344 847.403564453125 230 840.5 230 L840.5 240 Z" style="fill:white; clip-path:url(#clipPath1); stroke:none;" />
      <line x1="722" x2="841" y1="230" style="clip-path:url(#clipPath1); fill:none; stroke:black;" y2="230" />
      <line x1="722" x2="841" y1="250" style="clip-path:url(#clipPath1); fill:none; stroke:black;" y2="250" />
      <path d="M722.5 230 C715.596435546875 230 710 234.47715759277344 710 240 C710 245.52284240722656 715.596435546875 250 722.5 250" style="fill:none; clip-path:url(#clipPath1); stroke:black;" />
      <path d="M840.5 250 C847.403564453125 250 853 245.52284240722656 853 240 C853 234.47715759277344 847.403564453125 230 840.5 230" style="fill:none; clip-path:url(#clipPath1); stroke:black;" />
    </g>
    <g style="font-family:sans-serif;">
      <text x="726" y="243" style="clip-path:url(#clipPath21); stroke:none;">Schedules changed
      </text>
    </g>
    <g style="fill:navy; stroke:navy;">
      <rect x="705" y="363" width="198" style="clip-path:url(#clipPath1); stroke:none;" height="20" />
      <path d="M705.5 363 C698.596435546875 363 693 367.4771423339844 693 373 C693 378.5228576660156 698.596435546875 383 705.5 383 L705.5 373 Z" style="clip-path:url(#clipPath1); stroke:none;" />
      <path d="M902.5 383 C909.403564453125 383 915 378.5228576660156 915 373 C915 367.4771423339844 909.403564453125 363 902.5 363 L902.5 373 Z" style="clip-path:url(#clipPath1); stroke:none;" />
      <rect x="702" y="360" width="198" style="clip-path:url(#clipPath1); fill:white; stroke:none;" height="20" />
      <path d="M702.5 360 C695.596435546875 360 690 364.4771423339844 690 370 C690 375.5228576660156 695.596435546875 380 702.5 380 L702.5 370 Z" style="fill:white; clip-path:url(#clipPath1); stroke:none;" />
      <path d="M899.5 380 C906.403564453125 380 912 375.5228576660156 912 370 C912 364.4771423339844 906.403564453125 360 899.5 360 L899.5 370 Z" style="fill:white; clip-path:url(#clipPath1); stroke:none;" />
      <line x1="702" x2="900" y1="360" style="clip-path:url(#clipPath1); fill:none; stroke:black;" y2="360" />
      <line x1="702" x2="900" y1="380" style="clip-path:url(#clipPath1); fill:none; stroke:black;" y2="380" />
      <path d="M702.5 360 C695.596435546875 360 690 364.4771423339844 690 370 C690 375.5228576660156 695.596435546875 380 702.5 380" style="fill:none; clip-path:url(#clipPath1); stroke:black;" />
      <path d="M899.5 380 C906.403564453125 380 912 375.5228576660156 912 370 C912 364.4771423339844 906.403564453125 360 899.5 360" style="fill:none; clip-path:url(#clipPath1); stroke:black;" />
    </g>
    <g style="font-family:sans-serif;">
      <text x="706" y="373" style="clip-path:url(#clipPath22); stroke:none;">Exchanger and Exchangee notified
      </text>
    </g>
    <g>
      <circle style="clip-path:url(#clipPath23); stroke:none;" r="4.5" cx="787.5" cy="437.5" />
      <circle style="fill:none; clip-path:url(#clipPath23);" r="7.5" cx="787.5" cy="437.5" />
    </g>
    <g>
      <line x1="788" x2="788" y1="383" style="clip-path:url(#clipPath1); fill:none;" y2="430" />
      <line x1="783" x2="783" y1="253" style="clip-path:url(#clipPath1); fill:none;" y2="360" />
      <line x1="780" x2="780" y1="163" style="clip-path:url(#clipPath1); fill:none;" y2="230" />
      <line x1="460" x2="460" y1="263" style="clip-path:url(#clipPath1); fill:none;" y2="290" />
      <line x1="490" x2="490" y1="190" style="clip-path:url(#clipPath1); fill:none;" y2="143" />
      <line x1="520" x2="520" y1="143" style="clip-path:url(#clipPath1); fill:none;" y2="150" />
      <line x1="520" x2="700" y1="150" style="clip-path:url(#clipPath1); fill:none;" y2="150" />
      <line x1="530" x2="530" y1="414" style="clip-path:url(#clipPath1); fill:none;" y2="313" />
      <line x1="503" x2="503" y1="290" style="clip-path:url(#clipPath1); fill:none;" y2="263" />
      <line x1="590" x2="610" y1="303" style="clip-path:url(#clipPath1); fill:none;" y2="303" />
      <line x1="610" x2="610" y1="303" style="clip-path:url(#clipPath1); fill:none;" y2="330" />
      <line x1="610" x2="530" y1="330" style="clip-path:url(#clipPath1); fill:none;" y2="330" />
      <line x1="530" x2="530" y1="330" style="clip-path:url(#clipPath1); fill:none;" y2="313" />
      <line x1="252" x2="390" y1="746" style="clip-path:url(#clipPath1); fill:none;" y2="740" />
      <line x1="390" x2="390" y1="740" style="clip-path:url(#clipPath1); fill:none;" y2="230" />
      <line x1="390" x2="450" y1="230" style="clip-path:url(#clipPath1); fill:none;" y2="230" />
      <line x1="290" x2="390" y1="450" style="clip-path:url(#clipPath1); fill:none;" y2="390" />
      <line x1="390" x2="487" y1="390" style="clip-path:url(#clipPath1); fill:none;" y2="424" />
      <line x1="243" x2="243" y1="510" style="clip-path:url(#clipPath1); fill:none;" y2="463" />
      <line x1="243" x2="243" y1="560" style="clip-path:url(#clipPath1); fill:none;" y2="533" />
      <line x1="246" x2="246" y1="615" style="clip-path:url(#clipPath1); fill:none;" y2="583" />
      <line x1="304" x2="380" y1="303" style="clip-path:url(#clipPath1); fill:none;" y2="340" />
      <line x1="380" x2="440" y1="340" style="clip-path:url(#clipPath1); fill:none;" y2="303" />
      <line x1="253" x2="253" y1="253" style="clip-path:url(#clipPath1); fill:none;" y2="290" />
      <line x1="253" x2="253" y1="193" style="clip-path:url(#clipPath1); fill:none;" y2="230" />
      <line x1="245" x2="245" y1="134" style="clip-path:url(#clipPath1); fill:none;" y2="170" />
      <line x1="788" x2="793" y1="430" style="clip-path:url(#clipPath1); fill:none;" y2="418" />
      <line x1="788" x2="783" y1="430" style="clip-path:url(#clipPath1); fill:none;" y2="418" />
      <line x1="783" x2="788" y1="360" style="clip-path:url(#clipPath1); fill:none;" y2="348" />
      <line x1="783" x2="778" y1="360" style="clip-path:url(#clipPath1); fill:none;" y2="348" />
      <line x1="780" x2="785" y1="230" style="clip-path:url(#clipPath1); fill:none;" y2="218" />
      <line x1="780" x2="775" y1="230" style="clip-path:url(#clipPath1); fill:none;" y2="218" />
      <line x1="460" x2="465" y1="290" style="clip-path:url(#clipPath1); fill:none;" y2="278" />
      <line x1="460" x2="455" y1="290" style="clip-path:url(#clipPath1); fill:none;" y2="278" />
      <text x="474" y="281" style="clip-path:url(#clipPath1); font-family:sans-serif; stroke:none;">no
      </text>
      <line x1="490" x2="485" y1="143" style="clip-path:url(#clipPath1); fill:none; font-family:sans-serif;" y2="155" />
      <line x1="490" x2="495" y1="143" style="clip-path:url(#clipPath1); fill:none; font-family:sans-serif;" y2="155" />
      <text x="504" y="171" style="clip-path:url(#clipPath1); font-family:sans-serif; stroke:none;">yes
      </text>
      <line x1="700" x2="688" y1="150" style="clip-path:url(#clipPath1); fill:none; font-family:sans-serif;" y2="145" />
      <line x1="700" x2="688" y1="150" style="clip-path:url(#clipPath1); fill:none; font-family:sans-serif;" y2="155" />
      <line x1="530" x2="525" y1="313" style="clip-path:url(#clipPath1); fill:none; font-family:sans-serif;" y2="325" />
      <line x1="530" x2="535" y1="313" style="clip-path:url(#clipPath1); fill:none; font-family:sans-serif;" y2="325" />
      <line x1="503" x2="498" y1="263" style="clip-path:url(#clipPath1); fill:none; font-family:sans-serif;" y2="275" />
      <line x1="503" x2="508" y1="263" style="clip-path:url(#clipPath1); fill:none; font-family:sans-serif;" y2="275" />
      <line x1="530" x2="525" y1="313" style="clip-path:url(#clipPath1); fill:none; font-family:sans-serif;" y2="325" />
      <line x1="530" x2="535" y1="313" style="clip-path:url(#clipPath1); fill:none; font-family:sans-serif;" y2="325" />
      <line x1="450" x2="438" y1="230" style="clip-path:url(#clipPath1); fill:none; font-family:sans-serif;" y2="225" />
      <line x1="450" x2="438" y1="230" style="clip-path:url(#clipPath1); fill:none; font-family:sans-serif;" y2="235" />
      <text x="404" y="523" style="clip-path:url(#clipPath1); font-family:sans-serif; stroke:none;">RemoveWaitingShift
      </text>
      <line x1="487" x2="477" y1="424" style="clip-path:url(#clipPath1); fill:none; font-family:sans-serif;" y2="415" />
      <line x1="487" x2="474" y1="424" style="clip-path:url(#clipPath1); fill:none; font-family:sans-serif;" y2="425" />
      <line x1="243" x2="238" y1="463" style="clip-path:url(#clipPath1); fill:none; font-family:sans-serif;" y2="475" />
      <line x1="243" x2="248" y1="463" style="clip-path:url(#clipPath1); fill:none; font-family:sans-serif;" y2="475" />
      <line x1="243" x2="238" y1="533" style="clip-path:url(#clipPath1); fill:none; font-family:sans-serif;" y2="545" />
      <line x1="243" x2="248" y1="533" style="clip-path:url(#clipPath1); fill:none; font-family:sans-serif;" y2="545" />
      <line x1="246" x2="241" y1="583" style="clip-path:url(#clipPath1); fill:none; font-family:sans-serif;" y2="595" />
      <line x1="246" x2="251" y1="583" style="clip-path:url(#clipPath1); fill:none; font-family:sans-serif;" y2="595" />
      <line x1="440" x2="427" y1="303" style="clip-path:url(#clipPath1); fill:none; font-family:sans-serif;" y2="305" />
      <line x1="440" x2="432" y1="303" style="clip-path:url(#clipPath1); fill:none; font-family:sans-serif;" y2="314" />
      <line x1="253" x2="258" y1="290" style="clip-path:url(#clipPath1); fill:none; font-family:sans-serif;" y2="278" />
      <line x1="253" x2="248" y1="290" style="clip-path:url(#clipPath1); fill:none; font-family:sans-serif;" y2="278" />
      <line x1="253" x2="258" y1="230" style="clip-path:url(#clipPath1); fill:none; font-family:sans-serif;" y2="218" />
      <line x1="253" x2="248" y1="230" style="clip-path:url(#clipPath1); fill:none; font-family:sans-serif;" y2="218" />
      <line x1="245" x2="250" y1="170" style="clip-path:url(#clipPath1); fill:none; font-family:sans-serif;" y2="158" />
      <line x1="245" x2="240" y1="170" style="clip-path:url(#clipPath1); fill:none; font-family:sans-serif;" y2="158" />
    </g>
  </g>
</svg>
